<svg xmlns="http://www.w3.org/2000/svg" viewBox="0 0 128 128" width="100%" height="100%">
  <rect x="8" y="8" width="112" height="112" rx="28" fill="#1E1E2E" />
  
  <defs>
    <linearGradient id="cloudGrad" x1="0%" y1="0%" x2="100%" y2="100%">
      <stop offset="0%" stop-color="#00F2FE" />
      <stop offset="100%" stop-color="#4FACFE" />
    </linearGradient>
    <linearGradient id="coreGrad" x1="0%" y1="100%" x2="100%" y2="0%">
      <stop offset="0%" stop-color="#FA709A" />
      <stop offset="100%" stop-color="#FEE140" />
    </linearGradient>
  </defs>

  <g fill="none" stroke="url(#cloudGrad)" stroke-width="10" stroke-linecap="round" stroke-linejoin="round" transform="translate(5, 5) skewX(-10)">
    <path d="M 28 32 C 28 16, 52 16, 52 32 C 52 40, 48 48, 36 48" />
    
    <path d="M 28 32 L 28 88 L 48 108 L 64 80 L 80 108 L 100 88" />
  </g>

  <g fill="#00F2FE" opacity="0.6">
    <circle cx="22" cy="22" r="1.5" />
    <circle cx="26" cy="78" r="2" />
    <circle cx="106" cy="38" r="2" />
    <circle cx="102" cy="92" r="2.5" />
    <circle cx="42" cy="18" r="2" />
    <circle cx="86" cy="108" r="3" />
    <circle cx="78" cy="20" r="1.5" />
    <circle cx="46" cy="98" r="2" />
    <circle cx="112" cy="64" r="2" />
    <circle cx="16" cy="64" r="2.5" />
    <circle cx="64" cy="16" r="1.5" />
    <circle cx="64" cy="112" r="3" />
    <circle cx="28" cy="106" r="1" />
    <circle cx="100" cy="22" r="1" />
  </g>
  
  <g fill="url(#cloudGrad)">
    <circle cx="33" cy="37" r="5" /> <circle cx="33" cy="93" r="5" />
    <circle cx="105" cy="93" r="5" />
    <circle cx="69" cy="85" r="4.5" />
  </g>

  <circle cx="69" cy="85" r="6" fill="url(#coreGrad)" />

</svg>
